<svg data-v-6805eed4="" version="1.0" xmlns="http://www.w3.org/2000/svg" xmlns:xlink="http://www.w3.org/1999/xlink" width="100%" height="100%" viewBox="0 0 340.000000 250.000000" preserveAspectRatio="xMidYMid meet" color-interpolation-filters="sRGB" style="margin: auto;"> <rect data-v-6805eed4="" x="0" y="0" width="100%" height="100%" fill="#140d0d" fill-opacity="1" class="background"></rect> <rect data-v-6805eed4="" x="0" y="0" width="100%" height="100%" fill="url(#watermark)" fill-opacity="1" class="watermarklayer"></rect> <g data-v-6805eed4="" fill="#f0c244" class="linesvg" transform="translate(113.82739639282227,75.97239303588867)"><rect fill="#f0c244" x="0" y="0" width="112.34520721435547" height="5"></rect> <rect fill="#f0c244" x="0" y="93.05521392822266" width="112.34520721435547" height="5"></rect> <g fill="#f0c244" transform="translate(0,10)"><g data-gra="path-name" fill-rule="" class="tp-name"><g transform="scale(0.6599999999999997)"><g><path d="M45.78 0.88L26.41 0.88 35.12-8.12 43.43-66.82 41.09-69.55 62.41-69.55 53.41-5.58Q52.92-2.74 50.77-0.93 48.62 0.88 45.78 0.88L45.78 0.88ZM38.25-56.54L22.7-11.93 4.11-11.93 19.66-56.54 38.25-56.54ZM67.3-11.93L64.27-56.54 82.86-56.54 85.89-11.93 67.3-11.93ZM97.04-32.97L109.96-35.71 111.03-43.53 124.83-58.4 103.6-58.4 104.87-67.7 142.53-67.7 141.26-58.4 126-42.07 125.61-39.13 138.82-42.07 137.45-32.09 124.14-29.15 121.3-8.32Q121.11-6.95 120.23-5.58 119.35-4.21 118.22-3.13 117.1-2.05 115.97-1.37 114.85-0.68 114.07-0.68L114.07-0.68 98.32-0.68 106.14-8.41 108.49-25.73 95.67-22.99 97.04-32.97ZM172.27-0.88L139.21-0.88 148.3-65.64 146.45-69.36 164.25-69.36 156.23-11.93 169.14-11.93 174.33-16.24 172.27-0.88Z" transform="translate(-4.110000133514404, 69.55000305175781)"></path></g> <!----> <!----> <!----> <!----> <!----> <!----> <g data-gra="path-name-1" fill="#ec7210" transform="translate(0,73.43000030517578)"><g transform="scale(0.96028)"><path d="M6.65-45L27.39-45 26.41-38.22 19.37-38.22 16.24-30 25.24-30 21.13-0.72 2.48-0.72 4.76-17.22 1.7-17.22 9.65-38.22 5.67-38.22 6.65-45ZM35.22-21.26L34.04-24.78 32.09-20.35 24.07-20.35 29.48-35.35 38.74-35.35 36.33-29.93 38.74-29.93 40.89-23.41 45.72-35.28 54.46-35.28 52.04-29.87 54.26-29.87 56.35-21.2 50.74-21.2 49.7-24.39 47.93-20.41 39.65-20.41 39.98-21.26 35.22-21.26ZM35.02-19.37L45.33-19.37 44.8-15.72 55.76-15.72 54.98-9.85 44.02-9.85 42.59 0.39 32.28 0.39 33.72-9.85 23.02-9.85 23.8-15.72 34.5-15.72 35.02-19.37ZM28.11-42.65L38.61-42.65 38.8-43.76 36.85-46.3 49.3-46.3 48.78-42.65 58.3-42.65 57.46-36.72 27.26-36.72 28.11-42.65ZM11.54-6.65L14.02-6.65 16.37-23.28 13.89-23.28 11.54-6.65ZM66.65-45L87.39-45 86.41-38.22 79.37-38.22 76.24-30 85.24-30 81.13-0.72 62.48-0.72 64.76-17.22 61.7-17.22 69.65-38.22 65.67-38.22 66.65-45ZM95.22-21.26L94.04-24.78 92.09-20.35 84.07-20.35 89.48-35.35 98.74-35.35 96.33-29.93 98.74-29.93 100.89-23.41 105.72-35.28 114.46-35.28 112.04-29.87 114.26-29.87 116.35-21.2 110.74-21.2 109.7-24.39 107.93-20.41 99.65-20.41 99.98-21.26 95.22-21.26ZM95.02-19.37L105.33-19.37 104.8-15.72 115.76-15.72 114.98-9.85 104.02-9.85 102.59 0.39 92.28 0.39 93.72-9.85 83.02-9.85 83.8-15.72 94.5-15.72 95.02-19.37ZM88.11-42.65L98.61-42.65 98.8-43.76 96.85-46.3 109.3-46.3 108.78-42.65 118.3-42.65 117.46-36.72 87.26-36.72 88.11-42.65ZM71.54-6.65L74.02-6.65 76.37-23.28 73.89-23.28 71.54-6.65ZM136.63-46.3L167.61-46.3 178.96-31.5 165.72-31.5 159.85-40.17 146.35-40.17 138.07-31.3 125.48-31.3 138.13-44.61 136.63-46.3ZM129.52-29.28L173.41-29.28 172.57-23.35 165.78-18.85 151.57-18.85 158.28-23.28 128.67-23.28 129.52-29.28ZM156.98-37.7L159.98-31.37 149.41-31.37 146.8-37.7 156.98-37.7ZM134.93-15.46L130.43-0.72 120.98-0.72 125.54-15.46 134.93-15.46ZM165.26-0.72L164.87-15.46 174.33-15.46 174.65-0.72 165.26-0.72ZM150-8.54L149.41-17.41 159.13-17.41 159.72-8.54 150-8.54ZM162.72-0.59L134.09-0.59 136.3-16.63 147.52-16.63 146.15-6.72 161.48-6.72 163.83-8.8 162.72-0.59Z" transform="translate(-1.7000000476837158, 46.29999923706055)"></path></g></g></g></g> <!----></g></g><defs v-gra="od"></defs></svg>